<svg  viewBox="0 0 36 36" fill="none" xmlns="http://www.w3.org/2000/svg">
<path d="M2.00606 21.5991C1.62773 21.6002 1.25681 21.5047 0.936372 21.3237C0.615939 21.1427 0.359152 20.8835 0.195846 20.5763C0.0325399 20.2691 -0.0305819 19.9266 0.0138142 19.5884C0.0582103 19.2502 0.208302 18.9303 0.446651 18.6658L20.2392 0.310607C20.3876 0.156354 20.5899 0.0521158 20.8129 0.015003C21.0359 -0.0221098 21.2662 0.0101077 21.4661 0.106367C21.6661 0.202627 21.8237 0.357209 21.9132 0.54474C22.0027 0.732272 22.0186 0.941609 21.9585 1.13839L18.12 11.9716C18.0068 12.2442 17.9688 12.5376 18.0092 12.8264C18.0496 13.1152 18.1673 13.3908 18.352 13.6297C18.5368 13.8686 18.7832 14.0636 19.0701 14.1979C19.357 14.3322 19.6759 14.4019 19.9992 14.4009H33.9939C34.3723 14.3998 34.7432 14.4953 35.0636 14.6763C35.3841 14.8573 35.6408 15.1165 35.8042 15.4237C35.9675 15.7309 36.0306 16.0734 35.9862 16.4116C35.9418 16.7498 35.7917 17.0697 35.5533 17.3342L15.7608 35.6894C15.6124 35.8436 15.4101 35.9479 15.1871 35.985C14.9641 36.0221 14.7338 35.9899 14.5339 35.8936C14.3339 35.7974 14.1763 35.6428 14.0868 35.4553C13.9973 35.2677 13.9814 35.0584 14.0415 34.8616L17.88 24.0284C17.9932 23.7558 18.0312 23.4624 17.9908 23.1736C17.9504 22.8848 17.8327 22.6092 17.648 22.3703C17.4632 22.1314 17.2167 21.9364 16.9299 21.8021C16.643 21.6678 16.3241 21.5981 16.0008 21.5991H2.00606Z" fill="#7CCF00"/>
</svg>
