<svg  viewBox="0 0 382 192" fill="none" xmlns="http://www.w3.org/2000/svg">
<path d="M290.279 116.992C292.071 116.992 293.991 116.437 296.039 115.328C298.087 114.219 300.007 112.512 301.799 110.208C304.274 106.795 305.98 102.784 306.919 98.176C307.943 93.568 308.455 89.088 308.455 84.736V65.792C309.223 65.536 310.119 65.3227 311.143 65.152C312.167 64.9813 313.234 64.896 314.343 64.896C316.306 64.896 318.226 65.1947 320.103 65.792V95.36C320.103 109.525 325.266 116.608 335.591 116.608C341.65 116.608 346.087 114.176 348.903 109.312C351.804 104.363 353.255 97.6213 353.255 89.088V65.792C355.047 65.1947 356.967 64.896 359.015 64.896C361.148 64.896 363.111 65.1947 364.903 65.792V119.168C366.695 117.888 368.53 116.651 370.407 115.456C372.37 114.176 374.034 113.152 375.399 112.384C377.106 113.408 378.428 114.731 379.367 116.352C380.306 117.973 380.903 119.851 381.159 121.984C379.879 122.837 378.215 123.947 376.167 125.312C374.204 126.592 372.199 127.915 370.151 129.28C368.103 130.645 366.354 131.797 364.903 132.736V162.048C364.903 182.016 357.607 192 343.015 192C336.274 192 330.983 189.995 327.143 185.984C323.388 181.973 321.511 176.469 321.511 169.472C321.511 153.856 332.178 139.221 353.511 125.568V119.552C348.647 125.184 342.162 128 334.055 128C323.218 128 315.751 123.435 311.655 114.304C310.29 116.779 308.796 118.827 307.175 120.448C304.871 122.752 302.183 124.587 299.111 125.952C296.124 127.317 292.882 128 289.383 128C288.188 128 287.292 127.403 286.695 126.208C286.012 125.099 285.671 123.861 285.671 122.496C285.671 121.045 286.055 119.765 286.823 118.656C287.506 117.547 288.658 116.992 290.279 116.992ZM333.031 169.216C333.031 172.885 333.884 175.744 335.591 177.792C337.298 179.925 339.644 180.992 342.631 180.992C349.884 180.992 353.511 174.677 353.511 162.048V139.136C339.858 148.779 333.031 158.805 333.031 169.216Z" fill="white"/>
<path d="M186.383 128C185.274 128 184.378 127.488 183.695 126.464C183.012 125.44 182.671 124.117 182.671 122.496C182.671 118.827 184.207 116.992 187.279 116.992C190.01 116.992 192.442 115.627 194.575 112.896C196.794 110.08 198.714 105.429 200.335 98.944L204.175 83.968C207.759 70.656 214.586 64 224.655 64C228.495 64 231.738 65.152 234.383 67.456C237.028 69.6747 238.863 72.704 239.887 76.544C242.276 72.5333 245.348 69.4613 249.103 67.328C252.858 65.1093 257.039 64 261.647 64C268.303 64 273.423 66.176 277.007 70.528C280.676 74.88 282.511 80.9813 282.511 88.832V103.808C282.511 108.501 283.108 111.872 284.303 113.92C285.583 115.968 287.588 116.992 290.319 116.992C291.514 116.992 292.41 117.504 293.007 118.528C293.69 119.552 294.031 120.917 294.031 122.624C294.031 123.989 293.647 125.227 292.879 126.336C292.196 127.445 291.044 128 289.423 128C277.05 128 270.863 120.405 270.863 105.216V88.832C270.863 79.616 267.236 75.008 259.983 75.008C256.228 75.008 252.9 76.5013 249.999 79.488C247.183 82.4747 244.964 86.6133 243.343 91.904C241.807 97.1947 241.039 103.339 241.039 110.336V126.208C240.186 126.464 239.247 126.677 238.223 126.848C237.199 127.019 236.218 127.104 235.279 127.104C233.231 127.104 231.311 126.805 229.519 126.208V85.376C229.519 82.048 229.092 79.488 228.239 77.696C227.386 75.904 225.85 75.008 223.631 75.008C221.839 75.008 220.303 75.8187 219.023 77.44C217.743 79.0613 216.634 81.664 215.695 85.248L210.959 103.68C208.74 112.128 205.668 118.315 201.743 122.24C197.818 126.08 192.698 128 186.383 128Z" fill="white"/>
<path d="M90.258 128C89.1487 128 88.2527 127.488 87.57 126.464C86.8874 125.44 86.546 124.117 86.546 122.496C86.546 120.789 86.9727 119.467 87.826 118.528C88.594 117.504 89.6607 116.992 91.026 116.992C93.7567 116.992 96.7007 116.011 99.858 114.048C103.015 112.085 106.087 109.397 109.074 105.984C108.391 102.827 107.837 99.1147 107.41 94.848C107.069 90.5813 106.813 85.4187 106.642 79.36C106.471 73.3013 106.386 66.0053 106.386 57.472H106.514L106.386 57.344C106.386 49.7493 106.471 43.3067 106.642 38.016C106.813 32.7253 107.154 28.288 107.666 24.704C108.178 21.12 108.818 18.0907 109.586 15.616C110.439 13.056 111.506 10.752 112.786 8.704C114.663 5.632 116.967 3.41334 119.698 2.048C122.514 0.682668 125.586 0 128.914 0C135.57 0 140.69 2.944 144.274 8.832C147.858 14.72 149.65 22.8267 149.65 33.152C149.65 45.5253 147.218 58.24 142.354 71.296C137.49 84.352 130.535 96.8107 121.49 108.672C122.685 111.488 124.434 113.621 126.738 115.072C129.042 116.437 131.687 117.12 134.674 117.12C135.869 117.12 136.807 117.632 137.49 118.656C138.258 119.595 138.642 120.917 138.642 122.624C138.642 126.208 137.063 128 133.906 128C129.298 128 125.202 127.019 121.618 125.056C118.034 123.093 115.261 120.576 113.298 117.504C106.215 124.501 98.5354 128 90.258 128ZM117.778 58.112C117.778 67.072 117.821 74.4533 117.906 80.256C118.077 86.0587 118.29 90.8373 118.546 94.592C125.031 83.84 129.938 73.344 133.266 63.104C136.594 52.7787 138.258 42.752 138.258 33.024C138.258 25.9413 137.447 20.5227 135.826 16.768C134.205 12.928 131.901 11.008 128.914 11.008C125.586 11.008 123.069 12.9707 121.362 16.896C120.509 18.944 119.783 21.5467 119.186 24.704C118.674 27.776 118.29 31.9573 118.034 37.248C117.863 42.5387 117.778 49.4933 117.778 58.112Z" fill="white"/>
<path d="M8.192 128C6.4 127.573 4.736 126.72 3.2 125.44C1.74933 124.075 0.682667 122.539 0 120.832C7.08267 112.299 13.5253 103.168 19.328 93.44C25.1307 83.6267 29.8667 73.9413 33.536 64.384C34.9013 64.2133 36.6507 64.2133 38.784 64.384C40.9173 64.5547 42.6667 65.024 44.032 65.792V75.264C48.7253 67.7547 54.9973 64 62.848 64C69.1627 64 74.1547 66.2187 77.824 70.656C81.4933 75.008 83.328 81.0667 83.328 88.832V103.808C83.328 108.501 83.9253 111.872 85.12 113.92C86.4 115.968 88.4053 116.992 91.136 116.992C92.3307 116.992 93.2267 117.504 93.824 118.528C94.5067 119.552 94.848 120.917 94.848 122.624C94.848 123.989 94.464 125.227 93.696 126.336C93.0133 127.445 91.8613 128 90.24 128C77.8667 128 71.68 120.405 71.68 105.216V88.832C71.68 79.616 68.3093 75.008 61.568 75.008C58.5813 75.008 55.8507 76.16 53.376 78.464C50.9013 80.768 48.9387 83.84 47.488 87.68C46.1227 91.4347 45.44 95.6587 45.44 100.352V173.312C44.5867 173.568 43.648 173.781 42.624 173.952C41.6 174.123 40.6187 174.208 39.68 174.208C37.632 174.208 35.6693 173.909 33.792 173.312V89.856C31.9147 93.6107 29.824 97.4507 27.52 101.376C25.216 105.216 22.8267 108.885 20.352 112.384C17.9627 115.883 15.7013 118.997 13.568 121.728C11.4347 124.459 9.64267 126.549 8.192 128Z" fill="white"/>
<path d="M154.663 55.8071C154.285 55.8082 153.914 55.7127 153.593 55.5317C153.273 55.3507 153.016 55.0915 152.853 54.7843C152.69 54.4771 152.626 54.1346 152.671 53.7964C152.715 53.4582 152.865 53.1383 153.104 52.8738L172.896 34.5186C173.045 34.3644 173.247 34.2601 173.47 34.223C173.693 34.1859 173.923 34.2181 174.123 34.3144C174.323 34.4106 174.481 34.5652 174.57 34.7527C174.66 34.9403 174.676 35.1496 174.615 35.3464L170.777 46.1796C170.664 46.4522 170.626 46.7456 170.666 47.0344C170.707 47.3232 170.824 47.5988 171.009 47.8377C171.194 48.0766 171.44 48.2716 171.727 48.4059C172.014 48.5402 172.333 48.6099 172.656 48.6089H186.651C187.029 48.6078 187.4 48.7033 187.721 48.8843C188.041 49.0654 188.298 49.3245 188.461 49.6317C188.624 49.9389 188.688 50.2815 188.643 50.6196C188.599 50.9578 188.449 51.2777 188.21 51.5422L168.418 69.8974C168.269 70.0517 168.067 70.1559 167.844 70.193C167.621 70.2301 167.391 70.1979 167.191 70.1016C166.991 70.0054 166.833 69.8508 166.744 69.6633C166.654 69.4757 166.638 69.2664 166.698 69.0696L170.537 58.2364C170.65 57.9638 170.688 57.6704 170.648 57.3816C170.607 57.0928 170.49 56.8172 170.305 56.5783C170.12 56.3394 169.874 56.1445 169.587 56.0101C169.3 55.8758 168.981 55.8061 168.658 55.8071H154.663Z" fill="#7CCF00"/>
<path d="M178.118 102.656C178.118 107.179 178.801 110.72 180.166 113.28C181.617 115.755 184.006 116.992 187.334 116.992C188.785 116.992 189.766 117.59 190.278 118.784C190.79 119.979 191.046 121.259 191.046 122.624C191.046 123.989 190.662 125.227 189.894 126.336C189.211 127.445 188.059 128 186.438 128C175.857 128 169.713 122.027 168.006 110.08C164.251 115.712 159.473 120.106 153.67 123.264C147.953 126.421 141.552 128 134.47 128C133.19 128 132.209 127.488 131.526 126.464C130.758 125.44 130.374 124.117 130.374 122.496C130.374 120.789 130.801 119.467 131.654 118.528C132.508 117.59 133.617 117.12 134.982 117.12C141.041 117.12 146.417 115.413 151.11 112C155.889 108.501 159.643 103.723 162.374 97.6641C165.105 91.6054 166.47 84.6931 166.47 76.9277V74.0654C167.138 74.2259 167.829 74.2504 168.501 74.1387C169.47 73.9774 170.417 73.529 171.178 72.792L178.118 66.3555V102.656ZM167.845 70.1934L167.677 70.208L167.676 70.207C167.732 70.2064 167.788 70.2026 167.844 70.1934C167.899 70.1841 167.954 70.1707 168.007 70.1533C167.954 70.1707 167.9 70.1841 167.845 70.1934Z" fill="white"/>
</svg>
